PathFileType	4	(X/Y/Z)	markers
DataRate	CameraRate	NumFrames	NumMarkers	Units	OrigDataRate	OrigDataStartFrame	OrigNumFrames
200	200	5	39	mm	200	161	257
Frame#	Time	RASI			LASI			RPSI			LPSI			RTH1			RTH2			RTH3			RTH4			RLFC			RTB1			RTB2			RTB3			RTB4			RLMAL			RCAL			RTOE			RMT5			LTH1			LTH2			LTH3			LTH4			LLFC			LTB1			LTB2			LTB3			LTB4			LLMAL			LCAL			LTOE			LMT5			C7			T10			CLAV			RACR			LACR			RLEL			RFAradius			LLEL			LFAradius		
		X1	Y1	Z1	X2	Y2	Z2	X3	Y3	Z3	X4	Y4	Z4	X5	Y5	Z5	X6	Y6	Z6	X7	Y7	Z7	X8	Y8	Z8	X9	Y9	Z9	X10	Y10	Z10	X11	Y11	Z11	X12	Y12	Z12	X13	Y13	Z13	X14	Y14	Z14	X15	Y15	Z15	X16	Y16	Z16	X17	Y17	Z17	X18	Y18	Z18	X19	Y19	Z19	X20	Y20	Z20	X21	Y21	Z21	X22	Y22	Z22	X23	Y23	Z23	X24	Y24	Z24	X25	Y25	Z25	X26	Y26	Z26	X27	Y27	Z27	X28	Y28	Z28	X29	Y29	Z29	X30	Y30	Z30	X31	Y31	Z31	X32	Y32	Z32	X33	Y33	Z33	X34	Y34	Z34	X35	Y35	Z35	X36	Y36	Z36	X37	Y37	Z37	X38	Y38	Z38	X39	Y39	Z39
161	0.800000	2201.817652	1001.585930	754.134746	2198.132545	1031.714462	520.834247	2040.358459	1060.216764	691.968594	2035.598905	1064.619314	594.210267	2093.479992	748.965456	783.304618	2147.380804	728.095059	755.126360	2110.216071	633.133873	746.792866	2068.039668	644.874918	769.574930	2002.346790	525.456853	749.056879	1879.044317	486.726416	769.569706	1900.230305	446.399076	748.001208	1806.474980	397.314800	729.223161	1783.929341	450.348825	759.137763	1597.343536	359.762709	724.520302	1539.347782	410.154726	676.539758	1609.623732	202.844757	620.870889	1587.291542	218.917301	723.206733	2245.565935	778.614895	455.481698	2271.111386	795.970706	494.900662	2308.377662	702.969402	518.781639	2276.470651	675.610243	468.723548	2293.430459	557.461586	486.464059	2314.221481	460.389233	468.354966	2357.053040	472.657254	492.042871	2382.600000	376.006602	510.467991	2328.132491	354.839953	478.889664	2410.750008	152.893066	527.269127	2356.153911	83.366056	588.951300	2557.574176	186.104739	604.534292	2531.080397	147.681747	509.836368	2077.874380	1554.574306	648.471183	2009.480493	1354.981367	668.215694	2190.432210	1480.839559	645.117444	2158.687932	1536.170011	799.541860	2092.736362	1527.469779	473.957074	2163.323502	1210.633896	901.301328	2343.692005	1233.371020	730.821257	1874.748776	1283.236805	394.209727	2111.809765	1192.542615	419.310913
162	0.805000	2218.231008	1000.295157	754.580825	2214.243692	1029.593192	520.800128	2056.307262	1058.028664	691.369813	2051.536507	1062.058242	594.037948	2110.877825	746.800062	784.026801	2165.610515	725.536385	755.821559	2129.473061	630.520145	747.505653	2086.517665	643.175643	771.878468	2022.399564	522.749145	750.302184	1898.924614	486.710786	770.852262	1919.217007	445.467260	750.065412	1824.392861	398.392792	730.620664	1803.186388	451.600796	760.163699	1614.442789	366.498551	725.409386	1557.924915	418.039106	676.594683	1622.937164	208.432853	622.210634	1601.400572	225.852520	723.789859	2261.495570	776.614081	456.283940	2286.922690	793.727637	495.231515	2323.414295	701.193736	520.059431	2291.790577	673.765398	469.350798	2308.543101	554.812441	486.903462	2329.578579	457.995630	467.919252	2372.039154	470.594770	490.713867	2398.004050	374.179142	510.836424	2344.081045	352.074987	479.538541	2427.613501	150.422174	528.834499	2373.519546	81.503000	590.394427	2574.029736	186.081639	605.807251	2547.403410	145.616677	511.640845	2093.861394	1552.679422	647.729935	2025.300504	1352.878183	667.130346	2206.385319	1478.792042	644.145136	2174.654299	1534.003000	799.283580	2108.368734	1524.734481	473.275353	2177.262534	1208.495251	901.567100	2358.877974	1227.677899	731.456820	1891.680935	1279.355066	394.334988	2129.096328	1189.336896	418.836416
163	0.810000	2234.866095	998.157909	754.685420	2230.809933	1027.347382	520.760052	2072.535342	1055.012554	691.383475	2067.708823	1059.408487	594.061109	2128.891882	744.619433	784.660937	2183.509561	723.689427	757.967817	2148.248491	628.369828	749.646989	2105.457697	640.276263	772.573796	2042.602717	519.758988	751.833906	1918.539067	485.189805	771.555953	1938.246668	443.902941	751.650201	1842.763981	398.903281	731.562075	1822.727178	453.324138	761.136770	1631.618548	373.208935	726.078335	1577.241639	425.620473	676.674652	1636.606031	214.425991	623.263207	1614.467476	231.920044	725.285470	2277.858035	775.305621	456.856310	2302.712193	791.939248	495.348321	2337.264751	699.072724	521.628333	2307.624495	671.633283	471.016693	2323.917959	552.564011	486.986480	2344.661652	454.901118	467.411778	2386.838948	467.178343	491.584084	2413.271348	371.051430	511.942413	2359.477556	349.241388	480.492296	2443.598691	147.835020	530.412941	2389.489247	78.376372	591.830965	2589.398988	184.791635	606.471178	2562.723227	142.673184	512.999834	2109.521751	1549.902956	647.630373	2041.056891	1350.458827	667.188204	2222.138348	1475.760095	644.147352	2190.482182	1531.416289	799.140269	2124.461377	1521.614634	472.820186	2191.434362	1206.136026	901.856142	2373.727762	1221.407547	731.565736	1909.061741	1274.956463	394.718068	2146.752660	1186.171953	418.207155
164	0.815000	2251.095952	996.298689	754.796901	2246.669310	1024.844800	520.855927	2088.476414	1051.687463	691.703684	2083.429534	1056.493093	594.268807	2146.319237	741.858825	785.526551	2201.664645	720.859798	758.211687	2167.252898	626.546082	752.580396	2123.977991	637.285191	774.162205	2063.406096	516.489673	753.423347	1939.080390	484.091081	773.111903	1957.821766	441.940094	752.933124	1861.154856	399.699457	733.243085	1842.595902	454.589617	762.520774	1649.425027	378.989773	726.083871	1596.900383	432.901702	676.379042	1651.414668	220.096370	624.862918	1629.279514	239.645696	726.957368	2294.678031	774.053846	457.058528	2319.328525	791.176294	496.301478	2354.172758	698.275747	523.636598	2324.140022	670.356405	472.784147	2339.851940	550.740992	487.252828	2358.979641	451.339505	468.861606	2401.884463	464.712892	491.176379	2428.323937	368.320244	511.398257	2374.562929	345.681373	481.002094	2457.596361	144.647672	531.647415	2403.940935	75.589882	593.500482	2604.310600	183.150700	607.273155	2577.233354	139.102728	514.446446	2125.627387	1547.113623	646.194870	2056.926309	1347.786394	666.242211	2238.175880	1473.427449	644.011778	2206.363932	1528.879643	798.974250	2140.430465	1518.632903	472.547950	2205.235501	1203.340636	902.357077	2388.716416	1214.947515	732.510969	1926.369869	1270.249253	395.220968	2164.398081	1182.197013	417.605157
165	0.820000	2267.276145	994.042250	754.937332	2262.385139	1022.102405	521.006271	2104.413948	1048.227201	691.731593	2099.385914	1053.413715	594.452334	2163.965367	738.848708	786.474946	2219.793815	718.730751	759.881820	2186.316091	622.548513	752.541000	2142.774227	634.434399	775.523369	2084.005209	512.784812	755.298860	1960.849759	482.047668	774.605603	1978.444777	439.812697	754.091732	1880.473135	399.531931	733.774251	1863.098750	454.383503	762.369844	1668.075274	386.018468	726.841884	1616.842668	440.040844	675.988783	1666.568277	225.378463	627.050755	1644.054371	246.233255	728.233745	2311.519787	772.285093	457.662959	2335.273237	790.127553	497.841883	2369.932516	697.134155	525.679011	2340.212010	669.343181	474.259328	2355.720631	548.506380	487.885378	2373.351574	448.195528	469.875265	2416.496546	460.502098	492.288052	2442.066378	364.831011	513.126363	2388.725904	342.611572	481.686311	2471.851560	141.321251	532.743871	2417.932503	72.149536	594.546980	2617.811848	180.266450	608.449352	2591.410923	134.823917	515.821084	2141.360581	1544.005276	646.421383	2072.257168	1345.049336	665.980621	2254.254895	1470.144151	643.479038	2222.393592	1526.032206	798.673280	2156.291077	1515.480903	471.900076	2218.768018	1200.395906	902.968956	2403.172981	1208.085402	733.284099	1943.721342	1265.197789	395.394809	2182.100065	1178.138810	417.174022
